<svg xmlns="http://www.w3.org/2000/svg" width="380" height="380" viewBox="0 0 380 380">
    <path fill="#FF4A2F" fill-rule="evenodd" d="M190 264l.313.003C197.9 264.17 204 270.373 204 278c0 6.158-3.976 11.387-9.5 13.261v25.053C210.042 318.5 222 331.854 222 348c0 17.673-14.327 32-32 32-17.673 0-32-14.327-32-32 0-16.145 11.957-29.498 27.5-31.686v-25.053l-.261-.092C179.85 289.221 176 284.06 176 278c0-7.732 6.268-14 14-14zm52.326-21.674c5.467-5.467 14.332-5.467 19.799 0 4.354 4.354 5.24 10.863 2.66 16.094l17.714 17.715c5.676-4.275 12.45-6.412 19.224-6.412l.491.004c8.025.122 16.013 3.245 22.136 9.368 12.497 12.497 12.497 32.759 0 45.255-6.123 6.124-14.11 9.247-22.136 9.37l-.491.003c-8.19 0-16.38-3.124-22.628-9.373-11.416-11.416-12.403-29.314-2.96-41.85l-17.715-17.716c-1.795.886-3.74 1.364-5.699 1.433l-.33.007h-.331c-3.528-.041-7.042-1.407-9.734-4.1-5.467-5.466-5.467-14.33 0-19.798zm-124.45 0c5.466-5.467 14.33-5.467 19.798 0 5.467 5.467 5.467 14.332 0 19.799-4.354 4.354-10.863 5.24-16.094 2.66l-17.715 17.714c9.443 12.537 8.456 30.435-2.96 41.851-12.497 12.497-32.759 12.497-45.255 0-12.497-12.496-12.497-32.758 0-45.255 11.416-11.416 29.314-12.403 41.85-2.96l17.716-17.715c-2.582-5.231-1.695-11.74 2.66-16.094zM190 140l.512.003.256.003h.059l.459.01.25.007h.005l.11.004.554.02c.032.003.065.004.098.006h.005l.163.007.495.027.104.007h.018l.2.012c.432.028.862.062 1.291.1.012.004.024.005.036.006l.001-.002.294.028c4.87.475 9.534 1.648 13.893 3.418 4.885 1.98 9.522 4.764 13.706 8.352l.107.094c.159.135.316.272.473.411.052.048.105.094.157.14.132.117.262.234.392.353l.282.259.296.275c.771.724 1.52 1.473 2.244 2.245.093.098.185.197.276.296l.257.28c.12.13.237.261.354.392l.139.158c.14.157.277.314.414.473l.09.107c3.587 4.18 6.37 8.812 8.349 13.694l.008.018c2.173 5.353 3.445 11.168 3.63 17.256.01.344.017.687.02 1.03L240 190l-.006.768v.033c-.1 6.351-1.384 12.415-3.641 17.98-1.98 4.894-4.768 9.538-8.36 13.728-.033.035-.064.071-.095.107-.135.159-.272.316-.411.473-.048.052-.094.105-.14.157-.117.132-.234.262-.353.392l-.259.282-.275.296c-.724.771-1.473 1.52-2.245 2.244-.098.093-.197.185-.296.276l-.28.257c-.13.12-.261.237-.392.354l-.158.139c-.157.14-.314.277-.473.414l-.107.09c-4.18 3.587-8.812 6.37-13.694 8.349l-.012.005-.061.025c-4.43 1.792-9.173 2.967-14.126 3.42l-.038.002.001.002-.478.041c-.337.028-.675.052-1.013.072h-.018l-.104.007-.495.027-.163.008c-.035 0-.069.002-.103.004l-.555.021-.11.004-.255.007h.001l-.46.01h-.058l-.257.002L190 240c-.17 0-.341 0-.511-.003l-.257-.003h-.059l-.458-.01-.25-.007-.115-.004-.555-.021-.098-.005-.168-.007-.495-.027-.104-.007h-.018c-.338-.02-.676-.044-1.013-.072l-.477-.043c-.013 0-.025-.002-.037-.003-4.954-.452-9.698-1.627-14.127-3.42l-.06-.024c-4.886-1.98-9.523-4.764-13.707-8.352l-.107-.094c-.159-.135-.316-.272-.473-.411-.052-.048-.105-.094-.157-.14-.132-.117-.262-.234-.392-.353l-.282-.259-.296-.275c-.771-.724-1.52-1.473-2.244-2.245-.093-.098-.185-.197-.276-.296l-.257-.28c-.12-.13-.237-.261-.354-.392l-.139-.158c-.14-.157-.277-.314-.414-.473l-.09-.107c-3.595-4.19-6.382-8.834-8.363-13.728C141.295 202.983 140 196.643 140 190l.006.803c-.012-.78-.006-1.56.017-2.338.185-6.094 1.457-11.909 3.63-17.262 1.98-4.888 4.765-9.526 8.355-13.712l.094-.107c.135-.159.272-.316.411-.473.048-.052.094-.105.14-.157.117-.132.234-.262.353-.392l.259-.282.275-.296c.724-.771 1.473-1.52 2.245-2.244.098-.093.197-.185.296-.276l.28-.257c.13-.12.261-.237.392-.354l.158-.139c.157-.14.314-.277.473-.414l.107-.09c4.18-3.587 8.812-6.37 13.694-8.349l.012-.005c4.359-1.77 9.023-2.943 13.893-3.418l.295-.026.037-.003c.428-.041.858-.075 1.29-.103l.2-.011.018-.001.104-.007.495-.027.163-.007.103-.005.555-.021.11-.003.255-.008c.426-.01.855-.016 1.285-.016l-.772.006h.004l.257-.003L190 140zm158 18c17.673 0 32 14.327 32 32 0 17.673-14.327 32-32 32-16.146 0-29.499-11.958-31.686-27.5H291.26l-.092.261C289.221 200.15 284.06 204 278 204c-7.732 0-14-6.268-14-14s6.268-14 14-14l.313.003c5.924.13 10.942 3.94 12.856 9.236l.092.26h25.053C318.502 169.957 331.854 158 348 158zm-316 0c16.145 0 29.498 11.957 31.686 27.5h25.053c1.874-5.525 7.103-9.5 13.261-9.5 7.732 0 14 6.268 14 14s-6.268 14-14 14c-6.158 0-11.387-3.976-13.261-9.5H63.686C61.5 210.042 48.146 222 32 222c-17.673 0-32-14.327-32-32 0-17.673 14.327-32 32-32zM301.723 46.277l.491.004c8.025.122 16.013 3.245 22.136 9.369 12.497 12.496 12.497 32.758 0 45.255-6.123 6.123-14.11 9.246-22.136 9.368l-.491.004c-6.774 0-13.548-2.137-19.224-6.412l-17.715 17.715c2.582 5.231 1.695 11.74-2.66 16.094-2.607 2.608-5.987 3.972-9.403 4.092l-.33.008h-.331c-3.528-.042-7.042-1.408-9.734-4.1-5.467-5.467-5.467-14.332 0-19.799 4.354-4.354 10.863-5.24 16.094-2.66l17.715-17.714c-9.443-12.537-8.456-30.435 2.96-41.851 6.249-6.249 14.438-9.373 22.628-9.373zM55.65 55.65c12.496-12.497 32.758-12.497 45.255 0 11.416 11.416 12.403 29.314 2.96 41.85l17.715 17.716c5.231-2.582 11.74-1.695 16.094 2.66 5.467 5.466 5.467 14.33 0 19.798-5.467 5.467-14.332 5.467-19.799 0-4.354-4.354-5.24-10.863-2.66-16.094l-17.714-17.715c-12.537 9.443-30.435 8.456-41.851-2.96-12.497-12.497-12.497-32.759 0-45.255zM190 0c17.673 0 32 14.327 32 32 0 16.145-11.957 29.498-27.5 31.686v25.053c5.525 1.874 9.5 7.103 9.5 13.261 0 7.732-6.268 14-14 14s-14-6.268-14-14c0-6.158 3.976-11.387 9.5-13.261V63.686C169.958 61.5 158 48.146 158 32c0-17.673 14.327-32 32-32z"/>
</svg>
