<?xml version="1.0" encoding="UTF-8"?>
<svg width="400px" height="400px" viewBox="0 0 400 400" version="1.1" xmlns="http://www.w3.org/2000/svg" xmlns:xlink="http://www.w3.org/1999/xlink">
    <!-- Generator: Sketch 61.2 (89653) - https://sketch.com -->
    <title>Red Icon Logo</title>
    <desc>Created with Sketch.</desc>
    <g id="Red-Icon-Logo" stroke="none" stroke-width="1" fill="none" fill-rule="evenodd">
        <g id="Group-2" transform="translate(12.500000, 12.500000)" fill="#FF4A2F">
            <circle id="Oval" fill-rule="nonzero" cx="187.243333" cy="187.243333" r="50.2666667"></circle>
            <path d="M220.010917,32.7675833 C220.010917,14.6517908 205.359126,0 187.243333,0 C169.127541,0 154.47575,14.6517908 154.47575,32.7675833 C154.47575,49.2918075 166.740188,62.91376 182.655872,65.16068 C182.655872,65.3011125 182.56225,65.3947342 182.56225,65.5351667 L182.56225,107.664917 C182.56225,110.239512 184.668738,112.346 187.243333,112.346 C189.817929,112.346 191.924417,110.239512 191.924417,107.664917 L191.924417,65.5351667 C191.924417,65.3947342 191.877606,65.3011125 191.830795,65.16068 C207.746478,62.91376 220.010917,49.2918075 220.010917,32.7675833 Z" id="Path" fill-rule="nonzero"></path>
            <path d="M154.47575,341.719083 C154.47575,359.834876 169.127541,374.486667 187.243333,374.486667 C205.359126,374.486667 220.010917,359.834876 220.010917,341.719083 C220.010917,325.194859 207.746478,311.572907 191.830795,309.325987 C191.830795,309.185554 191.924417,309.091932 191.924417,308.9515 L191.924417,266.82175 C191.924417,264.247154 189.817929,262.140667 187.243333,262.140667 C184.668738,262.140667 182.56225,264.247154 182.56225,266.82175 L182.56225,308.9515 C182.56225,309.091932 182.609061,309.185554 182.655872,309.325987 C166.740188,311.572907 154.47575,325.194859 154.47575,341.719083 Z" id="Path" fill-rule="nonzero"></path>
            <path d="M341.719083,154.47575 C325.194859,154.47575 311.572907,166.740188 309.325987,182.655872 C309.185554,182.609061 309.091932,182.56225 308.9515,182.56225 L266.82175,182.56225 C264.247154,182.56225 262.140667,184.668738 262.140667,187.243333 C262.140667,189.817929 264.247154,191.924417 266.82175,191.924417 L308.9515,191.924417 C309.091932,191.924417 309.185554,191.877606 309.325987,191.830795 C311.572907,207.746478 325.194859,220.010917 341.719083,220.010917 C359.834876,220.010917 374.486667,205.359126 374.486667,187.243333 C374.486667,169.127541 359.834876,154.47575 341.719083,154.47575 Z" id="Path" fill-rule="nonzero"></path>
            <path d="M65.16068,191.830795 C65.3011125,191.830795 65.3947342,191.924417 65.5351667,191.924417 L107.664917,191.924417 C110.239512,191.924417 112.346,189.817929 112.346,187.243333 C112.346,184.668738 110.239512,182.56225 107.664917,182.56225 L65.5351667,182.56225 C65.3947342,182.56225 65.3011125,182.609061 65.16068,182.655872 C62.91376,166.740188 49.2918075,154.47575 32.7675833,154.47575 C14.6517908,154.47575 0,169.127541 0,187.243333 C0,205.359126 14.6517908,220.010917 32.7675833,220.010917 C49.2918075,220.010917 62.91376,207.746478 65.16068,191.830795 Z" id="Path" fill-rule="nonzero"></path>
            <path d="M101.205022,319.62437 C112.90773,307.921662 113.890757,289.618626 104.200915,276.792458 C104.294537,276.698836 104.434969,276.698836 104.528591,276.605214 L131.023522,250.110282 C132.849145,248.28466 132.849145,245.335577 131.023522,243.509955 C129.1979,241.684333 126.248817,241.684332 124.423195,243.509955 L97.9282633,270.004887 C97.8346417,270.098508 97.7878308,270.238941 97.74102,270.332562 C84.9148517,260.689531 66.6118158,261.625747 54.9091075,273.328456 C42.12975,286.107813 42.12975,306.891823 54.9091075,319.671181 C67.6416542,332.450538 88.3788533,332.450538 101.205022,319.62437 Z" id="Path" fill-rule="nonzero"></path>
            <path d="M319.62437,273.281645 C307.921662,261.578937 289.618626,260.595909 276.792458,270.285752 C276.605214,270.051698 276.464782,269.817643 276.230728,269.6304 L243.135468,243.135468 C241.122602,241.497089 238.17352,241.871576 236.535141,243.884442 C234.943572,245.897308 235.271248,248.84639 237.284114,250.484769 L270.285752,276.886079 C260.64272,289.712247 261.672558,307.968473 273.328456,319.671181 C286.107813,332.450538 306.891823,332.450538 319.671181,319.671181 C332.450538,306.845013 332.450538,286.107813 319.62437,273.281645 Z" id="Path" fill-rule="nonzero"></path>
            <path d="M101.205022,54.8622967 C88.4256642,42.0829392 67.6416542,42.0829392 54.8622967,54.8622967 C42.0829392,67.6416542 42.0829392,88.4256642 54.8622967,101.205022 C66.5181942,112.860919 84.82123,113.843947 97.6473983,104.247726 L124.048708,137.249363 C124.984925,138.419634 126.342439,139.028175 127.699953,139.028175 C128.729792,139.028175 129.75963,138.700499 130.602225,137.998337 C132.615091,136.406768 132.942767,133.457686 131.351198,131.398009 L104.856267,98.30275 C104.669023,98.0686958 104.388158,97.9282633 104.200915,97.74102 C113.843947,84.8680408 112.860919,66.5181942 101.205022,54.8622967 Z" id="Path" fill-rule="nonzero"></path>
            <path d="M243.509955,135.657795 C244.727037,135.657795 245.897308,135.189687 246.833524,134.300281 L276.605214,104.528591 C276.698836,104.434969 276.745647,104.294537 276.792458,104.200915 C289.618626,113.843947 307.921662,112.90773 319.62437,101.205022 C332.403728,88.4256642 332.403728,67.6416542 319.62437,54.8622967 C306.845013,42.0829392 286.061003,42.0829392 273.281645,54.8622967 C261.578937,66.565005 260.595909,84.8680408 270.285752,97.6942092 C270.19213,97.7878308 270.051698,97.7878308 269.958076,97.8814525 L240.186386,127.653143 C238.360763,129.478765 238.360763,132.427848 240.186386,134.25347 C241.122603,135.189687 242.292873,135.657795 243.509955,135.657795 Z" id="Path" fill-rule="nonzero"></path>
            <circle id="Oval-Copy-25" cx="102.396203" cy="187.359519" r="14.0296145"></circle>
            <circle id="Oval-Copy-26" cx="187.243333" cy="103.543925" r="14.0296145"></circle>
            <circle id="Oval-Copy-27" cx="123.865411" cy="249.974112" r="14.0296145"></circle>
            <circle id="Oval-Copy-28" cx="246.028046" cy="249.974112" r="14.0296145"></circle>
            <circle id="Oval-Copy-29" cx="187.243333" cy="268.675697" r="14.0296145"></circle>
            <circle id="Oval-Copy-30" cx="247.726473" cy="127.406796" r="14.0296145"></circle>
            <circle id="Oval-Copy-31" cx="120.105521" cy="127.406796" r="14.0296145"></circle>
            <circle id="Oval-Copy-32" cx="272.090464" cy="187.359519" r="14.0296145"></circle>
        </g>
    </g>
</svg>