<?xml version="1.0" encoding="UTF-8"?>
<svg width="1000px" height="268px" viewBox="0 0 1000 268" version="1.1" xmlns="http://www.w3.org/2000/svg" xmlns:xlink="http://www.w3.org/1999/xlink">
    <!-- Generator: Sketch 61.2 (89653) - https://sketch.com -->
    <title>Red Logo</title>
    <desc>Created with Sketch.</desc>
    <g id="Red-Logo" stroke="none" stroke-width="1" fill="none" fill-rule="evenodd">
        <g id="Group-2" transform="translate(18.092105, 19.736842)" fill="#FF4A2F">
            <g id="noun_Data_3074971-Copy-4" transform="translate(0.000000, 0.000000)" fill-rule="nonzero">
                <g id="Group">
                    <circle id="Oval" cx="114.364035" cy="114.364035" r="30.7017544"></circle>
                    <path d="M134.377741,20.0137061 C134.377741,8.94898575 125.428755,0 114.364035,0 C103.299315,0 94.3503289,8.94898575 94.3503289,20.0137061 C94.3503289,30.1063322 101.841173,38.4263158 111.562116,39.7986842 C111.562116,39.8844572 111.504934,39.9416393 111.504934,40.0274123 L111.504934,65.7593202 C111.504934,67.3318257 112.79153,68.6184211 114.364035,68.6184211 C115.936541,68.6184211 117.223136,67.3318257 117.223136,65.7593202 L117.223136,40.0274123 C117.223136,39.9416393 117.194545,39.8844572 117.165954,39.7986842 C126.886897,38.4263158 134.377741,30.1063322 134.377741,20.0137061 Z" id="Path"></path>
                    <path d="M94.3503289,208.714364 C94.3503289,219.779084 103.299315,228.72807 114.364035,228.72807 C125.428755,228.72807 134.377741,219.779084 134.377741,208.714364 C134.377741,198.621738 126.886897,190.301754 117.165954,188.929386 C117.165954,188.843613 117.223136,188.786431 117.223136,188.700658 L117.223136,162.96875 C117.223136,161.396245 115.936541,160.109649 114.364035,160.109649 C112.79153,160.109649 111.504934,161.396245 111.504934,162.96875 L111.504934,188.700658 C111.504934,188.786431 111.533525,188.843613 111.562116,188.929386 C101.841173,190.301754 94.3503289,198.621738 94.3503289,208.714364 Z" id="Path"></path>
                    <path d="M208.714364,94.3503289 C198.621738,94.3503289 190.301754,101.841173 188.929386,111.562116 C188.843613,111.533525 188.786431,111.504934 188.700658,111.504934 L162.96875,111.504934 C161.396245,111.504934 160.109649,112.79153 160.109649,114.364035 C160.109649,115.936541 161.396245,117.223136 162.96875,117.223136 L188.700658,117.223136 C188.786431,117.223136 188.843613,117.194545 188.929386,117.165954 C190.301754,126.886897 198.621738,134.377741 208.714364,134.377741 C219.779084,134.377741 228.72807,125.428755 228.72807,114.364035 C228.72807,103.299315 219.779084,94.3503289 208.714364,94.3503289 Z" id="Path"></path>
                    <path d="M39.7986842,117.165954 C39.8844572,117.165954 39.9416393,117.223136 40.0274123,117.223136 L65.7593202,117.223136 C67.3318257,117.223136 68.6184211,115.936541 68.6184211,114.364035 C68.6184211,112.79153 67.3318257,111.504934 65.7593202,111.504934 L40.0274123,111.504934 C39.9416393,111.504934 39.8844572,111.533525 39.7986842,111.562116 C38.4263158,101.841173 30.1063322,94.3503289 20.0137061,94.3503289 C8.94898575,94.3503289 0,103.299315 0,114.364035 C0,125.428755 8.94898575,134.377741 20.0137061,134.377741 C30.1063322,134.377741 38.4263158,126.886897 39.7986842,117.165954 Z" id="Path"></path>
                    <path d="M61.813761,195.219408 C68.9615132,188.071656 69.5619243,176.892571 63.6435855,169.058635 C63.7007675,169.001453 63.7865406,169.001453 63.8437226,168.944271 L80.0262336,152.76176 C81.1412829,151.646711 81.1412829,149.845477 80.0262336,148.730428 C78.9111842,147.615378 77.1099507,147.615378 75.9949013,148.730428 L59.8123904,164.912939 C59.7552083,164.970121 59.7266173,165.055894 59.6980263,165.113076 C51.8640899,159.223328 40.6850055,159.795148 33.5372533,166.9429 C25.7319079,174.748246 25.7319079,187.442654 33.5372533,195.247999 C41.3140077,203.053344 53.9798246,203.053344 61.813761,195.219408 Z" id="Path"></path>
                    <path d="M195.219408,166.914309 C188.071656,159.766557 176.892571,159.166146 169.058635,165.084485 C168.944271,164.94153 168.858498,164.798575 168.715543,164.684211 L148.5017,148.5017 C147.272286,147.501014 145.471053,147.729742 144.470367,148.959156 C143.498273,150.188569 143.69841,151.989803 144.927823,152.990488 L165.084485,169.115817 C159.194737,176.949753 159.823739,188.100247 166.9429,195.247999 C174.748246,203.053344 187.442654,203.053344 195.247999,195.247999 C203.053344,187.414062 203.053344,174.748246 195.219408,166.914309 Z" id="Path"></path>
                    <path d="M61.813761,33.5086623 C54.0084156,25.7033169 41.3140077,25.7033169 33.5086623,33.5086623 C25.7033169,41.3140077 25.7033169,54.0084156 33.5086623,61.813761 C40.6278235,68.9329221 51.8069079,69.5333333 59.6408443,63.6721765 L75.7661732,83.8288377 C76.3379934,84.5436129 77.1671327,84.9152961 77.9962719,84.9152961 C78.6252741,84.9152961 79.2542763,84.715159 79.7689145,84.2862939 C80.9983279,83.3141996 81.1984649,81.512966 80.2263706,80.2549616 L64.0438596,60.0411184 C63.9294956,59.8981634 63.7579496,59.8123904 63.6435855,59.6980263 C69.5333333,51.8354989 68.9329221,40.6278235 61.813761,33.5086623 Z" id="Path"></path>
                    <path d="M148.730428,82.8567434 C149.473794,82.8567434 150.188569,82.5708333 150.760389,82.0276042 L168.944271,63.8437226 C169.001453,63.7865406 169.030044,63.7007675 169.058635,63.6435855 C176.892571,69.5333333 188.071656,68.9615132 195.219408,61.813761 C203.024753,54.0084156 203.024753,41.3140077 195.219408,33.5086623 C187.414063,25.7033169 174.719655,25.7033169 166.914309,33.5086623 C159.766557,40.6564145 159.166146,51.8354989 165.084485,59.6694353 C165.027303,59.7266173 164.94153,59.7266173 164.884348,59.7837993 L146.700466,77.9676809 C145.585417,79.0827303 145.585417,80.8839638 146.700466,81.9990132 C147.272286,82.5708333 147.987061,82.8567434 148.730428,82.8567434 Z" id="Path"></path>
                </g>
            </g>
            <circle id="Oval-Copy-25" cx="62.5413078" cy="114.434999" r="8.56897438"></circle>
            <circle id="Oval-Copy-26" cx="114.364035" cy="63.2423106" r="8.56897438"></circle>
            <circle id="Oval-Copy-27" cx="75.6542193" cy="152.67859" r="8.56897438"></circle>
            <circle id="Oval-Copy-28" cx="150.268421" cy="152.67859" r="8.56897438"></circle>
            <circle id="Oval-Copy-29" cx="114.364035" cy="164.101099" r="8.56897438"></circle>
            <circle id="Oval-Copy-30" cx="151.305783" cy="77.8172179" r="8.56897438"></circle>
            <circle id="Oval-Copy-31" cx="73.3577629" cy="77.8172179" r="8.56897438"></circle>
            <circle id="Oval-Copy-32" cx="166.186762" cy="114.434999" r="8.56897438"></circle>
        </g>
        <path d="M326.003947,114.985526 C336.697368,114.985526 346.147368,109.514474 350.955263,101.059211 L342.665789,96.3342105 C339.681579,102.053947 333.298684,105.701316 326.003947,105.701316 C313.486842,105.701316 305.197368,96.8315789 305.197368,84.8947368 C305.197368,72.9578947 313.486842,64.0881579 326.003947,64.0881579 C333.298684,64.0881579 339.598684,67.7355263 342.665789,73.4552632 L350.955263,68.6473684 C346.064474,60.1921053 336.614474,54.8039474 326.003947,54.8039474 C308.347368,54.8039474 295.664474,68.0671053 295.664474,84.8947368 C295.664474,101.722368 308.347368,114.985526 326.003947,114.985526 Z M386.434211,114.985526 C403.261842,114.985526 416.525,101.722368 416.525,84.8947368 C416.525,68.0671053 403.261842,54.8039474 386.434211,54.8039474 C369.689474,54.8039474 356.343421,68.0671053 356.343421,84.8947368 C356.343421,101.722368 369.689474,114.985526 386.434211,114.985526 Z M386.434211,105.701316 C374.828947,105.701316 365.876316,96.8315789 365.876316,84.8947368 C365.876316,72.9578947 374.828947,64.0881579 386.434211,64.0881579 C398.039474,64.0881579 406.992105,72.9578947 406.992105,84.8947368 C406.992105,96.8315789 398.039474,105.701316 386.434211,105.701316 Z M451.423684,113.907895 L471.567105,55.8815789 L461.205263,55.8815789 L445.703947,102.385526 L430.285526,55.8815789 L419.840789,55.8815789 L439.984211,113.907895 L451.423684,113.907895 Z M487.317105,113.907895 L487.317105,55.8815789 L477.784211,55.8815789 L477.784211,113.907895 L487.317105,113.907895 Z M521.718421,113.907895 C537.717105,113.907895 549.488158,101.059211 549.488158,84.8947368 C549.488158,68.6473684 537.717105,55.8815789 521.718421,55.8815789 L498.922368,55.8815789 L498.922368,113.907895 L521.718421,113.907895 Z M521.718421,104.789474 L508.455263,104.789474 L508.455263,65 L521.718421,65 C532.743421,65 540.286842,73.3723684 540.286842,84.8947368 C540.286842,96.3342105 532.743421,104.789474 521.718421,104.789474 Z M588.863158,93.0184211 L588.863158,84.3973684 L558.192105,84.3973684 L558.192105,93.0184211 L588.863158,93.0184211 Z M619.285526,113.907895 L619.285526,55.8815789 L610.996053,55.8815789 L595.743421,61.2697368 L598.064474,69.3934211 L609.752632,66.0776316 L609.752632,113.907895 L619.285526,113.907895 Z M646.806579,113.907895 L665.126316,86.3039474 C667.364474,83.0710526 668.607895,79.0921053 668.607895,74.6157895 C668.607895,62.9276316 660.152632,54.8039474 648.132895,54.8039474 C636.113158,54.8039474 627.575,62.9276316 627.575,74.6157895 C627.575,86.3039474 636.113158,94.4276316 648.132895,94.4276316 L649.127632,94.4276316 L635.864474,113.907895 L646.806579,113.907895 Z M648.132895,85.3921053 C641.832895,85.3921053 637.107895,81.1644737 637.107895,74.6157895 C637.107895,67.9842105 641.832895,63.8394737 648.132895,63.8394737 C654.432895,63.8394737 659.075,67.9842105 659.075,74.6157895 C659.075,81.2473684 654.432895,85.3921053 648.132895,85.3921053 Z M321.361842,206.013158 C337.360526,206.013158 349.131579,193.164474 349.131579,177 C349.131579,160.752632 337.360526,147.986842 321.361842,147.986842 L298.565789,147.986842 L298.565789,206.013158 L321.361842,206.013158 Z M321.361842,196.894737 L308.098684,196.894737 L308.098684,157.105263 L321.361842,157.105263 C332.386842,157.105263 339.930263,165.477632 339.930263,177 C339.930263,188.439474 332.386842,196.894737 321.361842,196.894737 Z M361.731579,158.348684 C364.881579,158.348684 367.451316,155.696053 367.451316,152.628947 C367.451316,149.478947 364.881579,146.909211 361.731579,146.909211 C358.581579,146.909211 356.011842,149.478947 356.011842,152.628947 C356.011842,155.696053 358.581579,158.348684 361.731579,158.348684 Z M366.207895,206.013158 L366.207895,164.565789 L357.255263,164.565789 L357.255263,206.013158 L366.207895,206.013158 Z M397.044737,223.669737 C407.903947,223.669737 418.348684,217.452632 418.348684,204.106579 L418.348684,164.565789 L409.561842,164.565789 L409.561842,170.7 C406.411842,166.223684 401.521053,163.488158 395.138158,163.488158 C383.45,163.488158 374.248684,173.021053 374.248684,184.875 C374.248684,196.728947 383.45,206.261842 395.138158,206.261842 C401.521053,206.261842 406.411842,203.526316 409.561842,199.05 L409.561842,204.106579 C409.561842,211.318421 404.919737,215.546053 397.210526,215.546053 C389.998684,215.546053 386.931579,212.727632 385.107895,209.163158 L377.398684,213.639474 C380.880263,220.271053 387.926316,223.669737 397.044737,223.669737 Z M396.381579,197.889474 C388.838158,197.889474 383.201316,192.335526 383.201316,184.875 C383.201316,177.414474 388.838158,171.860526 396.381579,171.860526 C403.925,171.860526 409.561842,177.414474 409.561842,184.875 C409.561842,192.335526 403.925,197.889474 396.381579,197.889474 Z M433.269737,158.348684 C436.419737,158.348684 438.989474,155.696053 438.989474,152.628947 C438.989474,149.478947 436.419737,146.909211 433.269737,146.909211 C430.119737,146.909211 427.55,149.478947 427.55,152.628947 C427.55,155.696053 430.119737,158.348684 433.269737,158.348684 Z M437.746053,206.013158 L437.746053,164.565789 L428.793421,164.565789 L428.793421,206.013158 L437.746053,206.013158 Z M471.235526,206.013158 L471.235526,197.972368 C464.438158,198.303947 460.956579,198.386842 460.956579,193.081579 L460.956579,173.186842 L471.235526,173.186842 L471.235526,164.565789 L460.956579,164.565789 L460.956579,152.960526 L452.003947,155.613158 L452.003947,164.565789 L444.377632,164.565789 L444.377632,173.186842 L452.003947,173.186842 L452.003947,193.081579 C452.003947,203.857895 457.475,207.671053 471.235526,206.013158 Z M498.093421,207.090789 C504.559211,207.090789 509.45,204.438158 512.6,200.044737 L512.6,206.013158 L521.552632,206.013158 L521.552632,164.565789 L512.6,164.565789 L512.6,170.451316 C509.45,166.140789 504.559211,163.488158 498.093421,163.488158 C486.819737,163.488158 477.452632,172.938158 477.452632,185.289474 C477.452632,197.557895 486.819737,207.090789 498.093421,207.090789 Z M499.502632,198.552632 C492.042105,198.552632 486.405263,192.998684 486.405263,185.289474 C486.405263,177.580263 492.042105,172.026316 499.502632,172.026316 C506.963158,172.026316 512.6,177.580263 512.6,185.289474 C512.6,192.998684 506.963158,198.552632 499.502632,198.552632 Z M540.95,206.013158 L540.95,145.5 L531.997368,145.5 L531.997368,206.013158 L540.95,206.013158 Z M600.053947,207.090789 C610.747368,207.090789 620.197368,201.619737 625.005263,193.164474 L616.715789,188.439474 C613.731579,194.159211 607.348684,197.806579 600.053947,197.806579 C587.536842,197.806579 579.247368,188.936842 579.247368,177 C579.247368,165.063158 587.536842,156.193421 600.053947,156.193421 C607.348684,156.193421 613.648684,159.840789 616.715789,165.560526 L625.005263,160.752632 C620.114474,152.297368 610.664474,146.909211 600.053947,146.909211 C582.397368,146.909211 569.714474,160.172368 569.714474,177 C569.714474,193.827632 582.397368,207.090789 600.053947,207.090789 Z M641.667105,206.013158 L641.667105,145.5 L632.714474,145.5 L632.714474,206.013158 L641.667105,206.013158 Z M670.348684,207.090789 C676.814474,207.090789 681.705263,204.438158 684.855263,200.044737 L684.855263,206.013158 L693.807895,206.013158 L693.807895,164.565789 L684.855263,164.565789 L684.855263,170.451316 C681.705263,166.140789 676.814474,163.488158 670.348684,163.488158 C659.075,163.488158 649.707895,172.938158 649.707895,185.289474 C649.707895,197.557895 659.075,207.090789 670.348684,207.090789 Z M671.757895,198.552632 C664.297368,198.552632 658.660526,192.998684 658.660526,185.289474 C658.660526,177.580263 664.297368,172.026316 671.757895,172.026316 C679.218421,172.026316 684.855263,177.580263 684.855263,185.289474 C684.855263,192.998684 679.218421,198.552632 671.757895,198.552632 Z M718.427632,207.090789 C727.380263,207.090789 734.592105,202.614474 734.592105,194.325 C734.592105,178.989474 712.293421,183.548684 712.293421,176.005263 C712.293421,173.021053 715.111842,171.611842 718.344737,171.611842 C721.743421,171.611842 724.644737,173.103947 726.136842,176.336842 L733.680263,172.109211 C730.778947,166.638158 725.142105,163.488158 718.344737,163.488158 C709.889474,163.488158 703.175,168.378947 703.175,176.171053 C703.175,191.009211 725.473684,186.864474 725.473684,194.242105 C725.473684,197.557895 722.406579,198.884211 718.427632,198.884211 C713.868421,198.884211 710.552632,196.646053 709.226316,192.915789 L701.517105,197.392105 C704.169737,203.360526 710.138158,207.090789 718.427632,207.090789 Z M756.642105,207.090789 C765.594737,207.090789 772.806579,202.614474 772.806579,194.325 C772.806579,178.989474 750.507895,183.548684 750.507895,176.005263 C750.507895,173.021053 753.326316,171.611842 756.559211,171.611842 C759.957895,171.611842 762.859211,173.103947 764.351316,176.336842 L771.894737,172.109211 C768.993421,166.638158 763.356579,163.488158 756.559211,163.488158 C748.103947,163.488158 741.389474,168.378947 741.389474,176.171053 C741.389474,191.009211 763.688158,186.864474 763.688158,194.242105 C763.688158,197.557895 760.621053,198.884211 756.642105,198.884211 C752.082895,198.884211 748.767105,196.646053 747.440789,192.915789 L739.731579,197.392105 C742.384211,203.360526 748.352632,207.090789 756.642105,207.090789 Z M789.634211,206.013158 L789.634211,185.123684 C789.634211,175.839474 796.514474,173.103947 802.4,173.518421 L802.4,163.819737 C797.177632,163.819737 792.121053,165.892105 789.634211,171.528947 L789.634211,164.565789 L780.681579,164.565789 L780.681579,206.013158 L789.634211,206.013158 Z M828.594737,207.090789 C840.780263,207.090789 850.478947,197.557895 850.478947,185.289474 C850.478947,172.938158 840.780263,163.488158 828.594737,163.488158 C816.492105,163.488158 806.710526,172.938158 806.710526,185.289474 C806.710526,197.557895 816.492105,207.090789 828.594737,207.090789 Z M828.594737,198.386842 C821.3,198.386842 815.663158,192.832895 815.663158,185.289474 C815.663158,177.746053 821.3,172.192105 828.594737,172.192105 C835.889474,172.192105 841.526316,177.746053 841.526316,185.289474 C841.526316,192.832895 835.889474,198.386842 828.594737,198.386842 Z M878.165789,207.090789 C890.351316,207.090789 900.05,197.557895 900.05,185.289474 C900.05,172.938158 890.351316,163.488158 878.165789,163.488158 C866.063158,163.488158 856.281579,172.938158 856.281579,185.289474 C856.281579,197.557895 866.063158,207.090789 878.165789,207.090789 Z M878.165789,198.386842 C870.871053,198.386842 865.234211,192.832895 865.234211,185.289474 C865.234211,177.746053 870.871053,172.192105 878.165789,172.192105 C885.460526,172.192105 891.097368,177.746053 891.097368,185.289474 C891.097368,192.832895 885.460526,198.386842 878.165789,198.386842 Z M917.126316,206.013158 L917.126316,182.802632 C917.126316,175.259211 921.271053,171.860526 926.327632,171.860526 C931.218421,171.860526 934.119737,175.093421 934.119737,180.896053 L934.119737,206.013158 L943.072368,206.013158 L943.072368,182.802632 C943.072368,175.259211 946.802632,171.860526 952.107895,171.860526 C956.998684,171.860526 960.148684,175.093421 960.148684,180.896053 L960.148684,206.013158 L969.101316,206.013158 L969.101316,180.315789 C969.101316,169.953947 962.801316,163.488158 953.434211,163.488158 C947.880263,163.488158 943.486842,165.726316 940.751316,170.036842 C938.347368,165.892105 934.368421,163.488158 928.980263,163.488158 C923.840789,163.488158 919.778947,165.477632 917.126316,169.539474 L917.126316,164.565789 L908.173684,164.565789 L908.173684,206.013158 L917.126316,206.013158 Z" id="COVID-19DigitalClassroom" fill="#171717" fill-rule="nonzero"></path>
    </g>
</svg>