<svg xmlns="http://www.w3.org/2000/svg" width="952" height="230" viewBox="0 0 952 230">
    <g fill="none" fill-rule="evenodd">
        <path fill="#171717" fill-rule="nonzero" d="M308.912 96.249c10.693 0 20.143-5.471 24.951-13.927l-8.29-4.725c-2.984 5.72-9.366 9.367-16.661 9.367-12.517 0-20.807-8.87-20.807-20.806 0-11.937 8.29-20.807 20.807-20.807 7.295 0 13.595 3.648 16.662 9.367l8.29-4.807c-4.892-8.456-14.342-13.844-24.952-13.844-17.657 0-30.34 13.263-30.34 30.09 0 16.829 12.683 30.092 30.34 30.092zm60.43 0c16.828 0 30.09-13.263 30.09-30.091 0-16.828-13.262-30.09-30.09-30.09-16.745 0-30.09 13.262-30.09 30.09s13.345 30.09 30.09 30.09zm0-9.285c-11.605 0-20.558-8.87-20.558-20.806 0-11.937 8.953-20.807 20.558-20.807s20.558 8.87 20.558 20.807-8.953 20.806-20.558 20.806zm64.99 8.207l20.143-58.026h-10.362l-15.501 46.504-15.419-46.504H402.75l20.143 58.026h11.44zm35.893 0V37.145h-9.533V95.17h9.533zm34.401 0c15.999 0 27.77-12.849 27.77-29.013 0-16.247-11.771-29.013-27.77-29.013H481.83V95.17h22.796zm0-9.118h-13.263v-39.79h13.263c11.025 0 18.569 8.373 18.569 19.895 0 11.44-7.544 19.895-18.569 19.895zm67.145-11.771V65.66H541.1v8.62h30.671zm30.422 20.89V37.144h-8.29l-15.252 5.388 2.321 8.124 11.689-3.316v47.83h9.532zm27.521 0l18.32-27.605c2.238-3.233 3.482-7.212 3.482-11.688 0-11.688-8.455-19.812-20.475-19.812-12.02 0-20.558 8.124-20.558 19.812S619.02 75.69 631.04 75.69h.995l-13.264 19.48h10.942zm1.327-28.517c-6.3 0-11.025-4.227-11.025-10.776 0-6.632 4.725-10.776 11.025-10.776 6.3 0 10.942 4.144 10.942 10.776s-4.642 10.776-10.942 10.776zM304.27 187.276c15.998 0 27.77-12.848 27.77-29.013 0-16.247-11.772-29.013-27.77-29.013h-22.796v58.026h22.796zm0-9.118h-13.263v-39.79h13.263c11.025 0 18.568 8.373 18.568 19.895 0 11.44-7.543 19.895-18.568 19.895zm40.37-38.546c3.15 0 5.72-2.653 5.72-5.72 0-3.15-2.57-5.72-5.72-5.72s-5.72 2.57-5.72 5.72c0 3.067 2.57 5.72 5.72 5.72zm4.476 47.664V145.83h-8.953v41.447h8.953zm30.837 17.657c10.859 0 21.304-6.217 21.304-19.563v-39.541h-8.787v6.134c-3.15-4.476-8.041-7.212-14.424-7.212-11.688 0-20.89 9.533-20.89 21.387 0 11.854 9.202 21.387 20.89 21.387 6.383 0 11.274-2.736 14.424-7.212v5.057c0 7.212-4.642 11.44-12.352 11.44-7.211 0-10.279-2.82-12.102-6.384l-7.71 4.477c3.482 6.631 10.528 10.03 19.647 10.03zm-.664-25.78c-7.543 0-13.18-5.554-13.18-13.015 0-7.46 5.637-13.014 13.18-13.014 7.544 0 13.18 5.554 13.18 13.014 0 7.46-5.636 13.015-13.18 13.015zm36.889-39.541c3.15 0 5.72-2.653 5.72-5.72 0-3.15-2.57-5.72-5.72-5.72s-5.72 2.57-5.72 5.72c0 3.067 2.57 5.72 5.72 5.72zm4.476 47.664V145.83H411.7v41.447h8.953zm33.49 0v-8.04c-6.798.331-10.28.414-10.28-4.891V154.45h10.28v-8.621h-10.28v-11.605l-8.952 2.652v8.953h-7.626v8.621h7.626v19.895c0 10.776 5.47 14.59 19.231 12.931zM481 188.354c6.466 0 11.357-2.653 14.507-7.046v5.968h8.953V145.83h-8.953v5.885c-3.15-4.31-8.04-6.963-14.507-6.963-11.273 0-20.64 9.45-20.64 21.802 0 12.268 9.367 21.8 20.64 21.8zm1.41-8.538c-7.461 0-13.098-5.554-13.098-13.263 0-7.71 5.637-13.264 13.098-13.264 7.46 0 13.097 5.554 13.097 13.264 0 7.709-5.637 13.263-13.097 13.263zm41.447 7.46v-60.513h-8.953v60.513h8.953zm59.104 1.078c10.693 0 20.143-5.471 24.951-13.926l-8.29-4.725c-2.984 5.72-9.366 9.367-16.661 9.367-12.517 0-20.807-8.87-20.807-20.807s8.29-20.806 20.807-20.806c7.295 0 13.595 3.647 16.662 9.367l8.29-4.808c-4.892-8.455-14.342-13.844-24.952-13.844-17.657 0-30.34 13.264-30.34 30.091 0 16.828 12.683 30.09 30.34 30.09zm41.613-1.078v-60.513h-8.953v60.513h8.953zm28.682 1.078c6.465 0 11.356-2.653 14.506-7.046v5.968h8.953V145.83h-8.953v5.885c-3.15-4.31-8.04-6.963-14.506-6.963-11.274 0-20.641 9.45-20.641 21.802 0 12.268 9.367 21.8 20.64 21.8zm1.409-8.538c-7.46 0-13.098-5.554-13.098-13.263 0-7.71 5.637-13.264 13.098-13.264 7.46 0 13.097 5.554 13.097 13.264 0 7.709-5.637 13.263-13.097 13.263zm46.67 8.538c8.952 0 16.164-4.476 16.164-12.766 0-15.335-22.299-10.776-22.299-18.32 0-2.984 2.819-4.393 6.052-4.393 3.398 0 6.3 1.492 7.792 4.725l7.543-4.228c-2.901-5.47-8.538-8.62-15.335-8.62-8.456 0-15.17 4.89-15.17 12.682 0 14.838 22.299 10.694 22.299 18.071 0 3.316-3.068 4.642-7.046 4.642-4.56 0-7.875-2.238-9.202-5.968l-7.709 4.476c2.653 5.969 8.621 9.699 16.91 9.699zm38.214 0c8.953 0 16.164-4.476 16.164-12.766 0-15.335-22.298-10.776-22.298-18.32 0-2.984 2.818-4.393 6.051-4.393 3.399 0 6.3 1.492 7.792 4.725l7.544-4.228c-2.902-5.47-8.539-8.62-15.336-8.62-8.455 0-15.17 4.89-15.17 12.682 0 14.838 22.3 10.694 22.3 18.071 0 3.316-3.068 4.642-7.047 4.642-4.56 0-7.875-2.238-9.201-5.968l-7.71 4.476c2.653 5.969 8.622 9.699 16.911 9.699zm32.992-1.078v-20.89c0-9.283 6.88-12.019 12.766-11.604v-9.7c-5.222 0-10.28 2.073-12.766 7.71v-6.963h-8.953v41.447h8.953zm38.96 1.078c12.186 0 21.885-9.533 21.885-21.801 0-12.352-9.699-21.802-21.884-21.802-12.103 0-21.885 9.45-21.885 21.802 0 12.268 9.782 21.8 21.885 21.8zm0-8.704c-7.294 0-12.93-5.554-12.93-13.097 0-7.544 5.636-13.098 12.93-13.098 7.295 0 12.932 5.554 12.932 13.098 0 7.543-5.637 13.097-12.931 13.097zm49.572 8.704c12.185 0 21.884-9.533 21.884-21.801 0-12.352-9.699-21.802-21.884-21.802-12.103 0-21.885 9.45-21.885 21.802 0 12.268 9.782 21.8 21.885 21.8zm0-8.704c-7.295 0-12.932-5.554-12.932-13.097 0-7.544 5.637-13.098 12.932-13.098 7.294 0 12.931 5.554 12.931 13.098 0 7.543-5.637 13.097-12.931 13.097zm38.96 7.626v-23.21c0-7.544 4.145-10.942 9.202-10.942 4.89 0 7.792 3.233 7.792 9.035v25.117h8.952v-23.21c0-7.544 3.73-10.942 9.036-10.942 4.89 0 8.04 3.233 8.04 9.035v25.117h8.953V161.58c0-10.362-6.3-16.828-15.667-16.828-5.554 0-9.947 2.238-12.683 6.549-2.404-4.145-6.383-6.549-11.77-6.549-5.14 0-9.202 1.99-11.855 6.052v-4.974h-8.952v41.447h8.952z" transform="translate(-.908 -.263)"/>
        <path fill="#FF4A2F" d="M125.408 160.747c4.7 0 8.51 3.81 8.51 8.51 0 3.744-2.416 6.923-5.774 8.062v15.23c9.448 1.33 16.717 9.447 16.717 19.262 0 10.743-8.71 19.452-19.453 19.452-10.743 0-19.453-8.71-19.453-19.452 0-9.815 7.27-17.932 16.717-19.262v-15.23c-3.358-1.14-5.775-4.318-5.775-8.061 0-4.7 3.81-8.51 8.51-8.51zm31.809-13.175c3.323-3.324 8.712-3.324 12.035 0 2.647 2.646 3.186 6.603 1.617 9.783l10.769 10.77c7.62-5.741 18.5-5.141 25.44 1.799 7.597 7.597 7.597 19.913 0 27.51-3.664 3.664-8.426 5.561-13.227 5.69l-.352.007h-.351c-4.92-.044-9.826-1.943-13.58-5.697-6.94-6.94-7.54-17.82-1.799-25.441L167 161.225c-1.06.523-2.208.812-3.365.866l-.266.008h-.267c-2.133-.033-4.257-.864-5.884-2.492-3.324-3.323-3.324-8.712 0-12.035zm-75.653 0c3.323-3.324 8.712-3.324 12.035 0 3.324 3.323 3.324 8.712 0 12.035-2.646 2.647-6.603 3.186-9.783 1.618l-10.77 10.768c5.741 7.621 5.141 18.5-1.799 25.441-7.596 7.597-19.913 7.597-27.51 0-7.597-7.597-7.597-19.913 0-27.51 6.94-6.94 17.82-7.54 25.441-1.8l10.768-10.77c-1.568-3.18-1.03-7.136 1.618-9.782zm43.844-62.204l.467.004c.155.002.31.006.466.01h.003l.067.003c3.669.119 7.173.888 10.402 2.196l.205.083.22.093.045.019c3.216 1.363 6.244 3.304 8.926 5.825l.138.13c.186.177.37.357.553.54.183.183.363.367.54.553l.13.138c2.418 2.573 4.303 5.464 5.656 8.533.095.218.19.437.28.658.029.069.057.137.084.206 1.314 3.242 2.084 6.763 2.198 10.449.015.474.018.948.011 1.422v.036c-.063 3.846-.84 7.518-2.204 10.89l-.018.045-.07.172-.11.262c-1.363 3.217-3.306 6.246-5.827 8.93l-.13.137c-.177.186-.357.37-.54.553-.183.183-.367.363-.553.54l-.138.13c-2.573 2.418-5.464 4.303-8.533 5.656-.218.096-.437.19-.658.28l-.173.071-.044.019c-3.245 1.312-6.768 2.081-10.457 2.193-.156.004-.313.008-.47.01l-.466.004c-.315 0-.624-.005-.933-.014-3.692-.112-7.215-.88-10.46-2.193l-.045-.019-.172-.07c-.22-.092-.44-.185-.659-.282-3.069-1.352-5.96-3.237-8.533-5.655l-.137-.13c-.186-.177-.37-.357-.553-.54-.183-.182-.363-.367-.54-.553l-.13-.137c-2.522-2.684-4.464-5.713-5.827-8.93l-.11-.262-.07-.172-.019-.045c-1.423-3.518-2.207-7.364-2.207-11.393l.004.467c-.008-.474-.004-.948.011-1.422.114-3.686.884-7.207 2.197-10.45l.084-.205c.092-.22.186-.44.282-.658 1.352-3.07 3.237-5.96 5.655-8.533l.13-.138c.177-.186.357-.37.54-.553.182-.183.367-.363.553-.54l.137-.13c2.683-2.52 5.711-4.462 8.926-5.825l.045-.019.221-.093.205-.083c3.229-1.308 6.733-2.077 10.402-2.196l.067-.002c.312-.01.624-.015.936-.015zm96.047 10.943l.342.002c10.586.183 19.11 8.821 19.11 19.45 0 10.744-8.708 19.453-19.452 19.453-9.815 0-17.932-7.27-19.262-16.717h-15.23l-.064.183c-1.19 3.263-4.322 5.592-7.996 5.592-4.7 0-8.51-3.81-8.51-8.51 0-4.701 3.81-8.511 8.51-8.511l.255.003c3.564.105 6.578 2.402 7.741 5.588l.065.183h15.23c1.33-9.448 9.446-16.716 19.261-16.716zm-192.094 0c9.814 0 17.932 7.268 19.261 16.716h15.23c1.14-3.358 4.318-5.774 8.061-5.774 4.7 0 8.51 3.81 8.51 8.51 0 4.7-3.81 8.51-8.51 8.51-3.743 0-6.922-2.416-8.061-5.774h-15.23c-1.33 9.448-9.447 16.717-19.261 16.717-10.744 0-19.453-8.71-19.453-19.453 0-10.743 8.71-19.452 19.453-19.452zm150.208-62.219c7.596-7.596 19.913-7.596 27.51 0 7.596 7.597 7.596 19.914 0 27.51-3.665 3.665-8.427 5.562-13.228 5.69l-.352.007h-.351c-4.06-.036-8.11-1.335-11.51-3.897l-.135.135-10.634 10.635c1.569 3.18 1.03 7.136-1.617 9.783-1.56 1.56-3.575 2.387-5.618 2.483l-.266.008h-.267c-2.133-.033-4.257-.864-5.884-2.491-3.324-3.324-3.324-8.713 0-12.036 1.695-1.696 3.928-2.526 6.15-2.492l.267.008c1.155.054 2.3.342 3.36.864l.006.003 5.054-5.054 5.715-5.715c-5.667-7.523-5.155-18.22 1.535-25.17zm-135.832 0c7.597-7.596 19.914-7.596 27.51 0 6.94 6.94 7.54 17.82 1.8 25.441l10.77 10.769c3.18-1.569 7.136-1.03 9.782 1.617 3.324 3.323 3.324 8.712 0 12.036-3.323 3.323-8.712 3.323-12.035 0-2.647-2.647-3.186-6.603-1.618-9.783l-10.768-10.77c-7.621 5.74-18.5 5.14-25.44-1.8-7.598-7.596-7.598-19.913 0-27.51zM125.407.263c10.744 0 19.454 8.71 19.454 19.453 0 9.815-7.27 17.932-16.717 19.262v15.23c3.358 1.139 5.774 4.317 5.774 8.06 0 4.7-3.81 8.51-8.51 8.51-4.7 0-8.51-3.81-8.51-8.51 0-3.743 2.416-6.921 5.774-8.06v-15.23c-9.448-1.33-16.717-9.447-16.717-19.262 0-10.744 8.71-19.453 19.453-19.453z" transform="translate(-.908 -.263)"/>
    </g>
</svg>
